# xmcd CD database file
# Copyright (C) 1993-1998 Ti Kan
# 
# Track frame offsets:
#     150
#     18558
#     33468
#     48835
#     60010
#     81200
#     96910
#     114798
#     132573
#     149448
#     161898
#     184395
#     203820
#     229173
#     251298
# 
# Disc length: 3634 seconds
# 
# Revision: 1
# Processed by: cddbd v1.4b41PL1 Copyright (c) Steve Scherf et al.
# Submitted via: DiscPlay 4.0.4
# 
DISCID=c90e300f
DTITLE=MARK WISE and HARY DE VILLE - PERFECT ? TOGETHER !
DYEAR=1900
DGENRE=
TTITLE0=SAN FRANCISCO BAY BLUES
TTITLE1=DU YOU KNOW WHAT IT MEANS
TTITLE2=EXACTLY LIKE YOU
TTITLE3=AIN`T GOT YOU
TTITLE4=PERFECT TOGETHER
TTITLE5=BARTENDER BLUES
TTITLE6=DAMES
TTITLE7=HONEYSUCKLE ROSE
TTITLE8=JUST BECAUSE
TTITLE9=EYESIGHT TO THE BLIND
TTITLE10=I`LL BE YOUR BABY TONIGHT
TTITLE11=WINDY WINTER
TTITLE12=AIN`T NO SUNSHINE
TTITLE13=WANT SOMEBODY
TTITLE14=BLUE MONDAY
EXTD=
EXTT0=
EXTT1=
EXTT2=
EXTT3=
EXTT4=
EXTT5=
EXTT6=
EXTT7=
EXTT8=
EXTT9=
EXTT10=
EXTT11=
EXTT12=
EXTT13=
EXTT14=
PLAYORDER=
